<svg xmlns="http://www.w3.org/2000/svg" version="1.1" xmlns:xlink="http://www.w3.org/1999/xlink" xmlns:svgjs="http://svgjs.dev/svgjs" width="100%" height="100%" viewBox="0 0 1000 600"><rect width="1000" height="600" x="0" y="0" fill="#fefbf6"/><g><circle r="166.66666666666666" cx="388.9267222086588" cy="411.1489190966736" fill="#3d3c42" transform="matrix(0.5624043665426521,0,0,0.562404366542652,0,68.7680602320794)"/><path d="M324.3566964942597 336.14892557774374Q337.2303946503527 336.14892557774374 346.9297562748063 341.7669973758039Q356.62911789925994 347.385069173864 361.340236402566 355.90035288572204L361.340236402566 355.90035288572204L361.340236402566 337.7612869906399L378.04329291428746 337.7612869906399L378.04329291428746 439.34005600309973Q378.04329291428746 452.94435542441136 372.22367593961525 463.5758634906956Q366.4292521120196 474.1821784099033 355.64658516327637 480.15295426703454Q344.8387250674566 486.1489232712422 330.5038243809264 486.1489232712422L330.5038243809264 486.1489232712422Q310.9287491024836 486.1489232712422 297.8535057697786 476.90303829416564Q284.8034555841501 467.65715331708907 282.4352997589588 451.6846980705862L282.4352997589588 451.6846980705862L298.7604590645327 451.6846980705862Q301.48131894879504 460.75423101812726 310.0217958077295 466.29672337495793Q318.5370795195875 471.81402258471206 330.5038243809264 471.81402258471206L330.5038243809264 471.81402258471206Q344.10812380223797 471.81402258471206 352.724180102402 463.2987388728541Q361.340236402566 454.7582620139196 361.340236402566 439.34005600309973L361.340236402566 439.34005600309973L361.340236402566 418.48013022375534Q356.45276586972443 427.19695911222533 346.8289836865003 432.99138293982105Q337.2303946503527 438.8109999144932 324.3566964942597 438.8109999144932L324.3566964942597 438.8109999144932Q311.1051011320192 438.8109999144932 300.3224341832759 432.28597482167896Q289.51457408745614 425.73575658178817 283.3422530537129 413.9453637499848Q277.19512516704617 402.1549709181814 277.19512516704617 387.11466211350916L277.19512516704617 387.11466211350916Q277.19512516704617 371.87280813222486 283.3422530537129 360.35953991826307Q289.51457408745614 348.8462717043012 300.3224341832759 342.4975986410225Q311.1051011320192 336.14892557774374 324.3566964942597 336.14892557774374L324.3566964942597 336.14892557774374ZM361.340236402566 387.2910141430447Q361.340236402566 376.05487054692435 356.8054699287955 367.69074571752543Q352.27070345502494 359.35181403520295 344.56160044961507 354.9178201497384Q336.85249744420514 350.4586331171974 327.60661246712857 350.4586331171974L327.60661246712857 350.4586331171974Q318.360727490052 350.4586331171974 310.7523970729481 354.8170475614324Q303.1188735087677 359.1754620056674 298.5841070349972 367.51439368798987Q294.04934056122664 375.85332537031235 294.04934056122664 387.11466211350916L294.04934056122664 387.11466211350916Q294.04934056122664 398.52715773916503 298.5841070349972 406.9668620097935Q303.1188735087677 415.40656628042194 310.7523970729481 419.8405601658865Q318.360727490052 424.2997471984275 327.60661246712857 424.2997471984275L327.60661246712857 424.2997471984275Q336.85249744420514 424.2997471984275 344.56160044961507 419.8405601658865Q352.27070345502494 415.40656628042194 356.8054699287955 406.9668620097935Q361.340236402566 398.52715773916503 361.340236402566 387.2910141430447L361.340236402566 387.2910141430447ZM446.9717433155995 336.14892557774374Q459.8454414716925 336.14892557774374 469.54480309614615 341.7669973758039Q479.2441647205997 347.385069173864 483.98047637098233 355.90035288572204L483.98047637098233 355.90035288572204L483.98047637098233 337.7612869906399L500.65833973562724 337.7612869906399L500.65833973562724 439.34005600309973Q500.65833973562724 452.94435542441136 494.8639159080316 463.5758634906956Q489.04429893335936 474.1821784099033 478.26163198461614 480.15295426703454Q467.4537718887964 486.1489232712422 453.14406434934267 486.1489232712422L453.14406434934267 486.1489232712422Q433.54379592382344 486.1489232712422 420.4937457381949 476.90303829416564Q407.41850240548985 467.65715331708907 405.0755397273751 451.6846980705862L405.0755397273751 451.6846980705862L421.40069903294903 451.6846980705862Q424.12155891721136 460.75423101812726 432.63684262906935 466.29672337495793Q441.15212634092734 471.81402258471206 453.14406434934267 471.81402258471206L453.14406434934267 471.81402258471206Q466.7483637706543 471.81402258471206 475.3644200708183 463.2987388728541Q483.98047637098233 454.7582620139196 483.98047637098233 439.34005600309973L483.98047637098233 439.34005600309973L483.98047637098233 418.48013022375534Q479.06781269106426 427.19695911222533 469.4692236549166 432.99138293982105Q459.8454414716925 438.8109999144932 446.9717433155995 438.8109999144932L446.9717433155995 438.8109999144932Q433.72014795335895 438.8109999144932 422.9374810046157 432.28597482167896Q412.1296209087959 425.73575658178817 405.9824930221292 413.9453637499848Q399.810171988386 402.1549709181814 399.810171988386 387.11466211350916L399.810171988386 387.11466211350916Q399.810171988386 371.87280813222486 405.9824930221292 360.35953991826307Q412.1296209087959 348.8462717043012 422.9374810046157 342.4975986410225Q433.72014795335895 336.14892557774374 446.9717433155995 336.14892557774374L446.9717433155995 336.14892557774374ZM483.98047637098233 387.2910141430447Q483.98047637098233 376.05487054692435 479.44570989721177 367.69074571752543Q474.91094342344127 359.35181403520295 467.20184041803134 354.9178201497384Q459.4927374126214 350.4586331171974 450.2216592884684 350.4586331171974L450.2216592884684 350.4586331171974Q440.9757743113918 350.4586331171974 433.36744389428793 354.8170475614324Q425.73392033010754 359.1754620056674 421.199153856337 367.51439368798987Q416.6643873825665 375.85332537031235 416.6643873825665 387.11466211350916L416.6643873825665 387.11466211350916Q416.6643873825665 398.52715773916503 421.199153856337 406.9668620097935Q425.73392033010754 415.40656628042194 433.36744389428793 419.8405601658865Q440.9757743113918 424.2997471984275 450.2216592884684 424.2997471984275L450.2216592884684 424.2997471984275Q459.4927374126214 424.2997471984275 467.20184041803134 419.8405601658865Q474.91094342344127 415.40656628042194 479.44570989721177 406.9668620097935Q483.98047637098233 398.52715773916503 483.98047637098233 387.2910141430447L483.98047637098233 387.2910141430447Z " fill="#fefbf6" transform="matrix(0.5624043665426521,0,0,0.562404366542652,0,68.7680602320794)"/><path d="M676.7551002170153 365.83368968749744Q687.0811134911128 365.83368968749744 694.8609865058438 370.3399537973287Q702.6408595205747 374.8462179071599 706.4196549848727 381.67634019022245L706.4196549848727 381.67634019022245L706.4196549848727 367.1269672795566L719.8172025401108 367.1269672795566L719.8172025401108 448.603455579285Q719.8172025401108 459.51548526228436 715.1492787312721 468.0430343849246Q710.5015623848094 476.5503760451889 701.8527684879136 481.339544628283Q693.183767128642 486.14892067375314 681.6857210367409 486.14892067375314L681.6857210367409 486.14892067375314Q665.9845227706473 486.14892067375314 655.4968497975424 478.7327819817888Q645.0293842868134 471.3166432898244 643.1298828234765 458.50511214348813L643.1298828234765 458.50511214348813L656.2243184430757 458.50511214348813Q658.4067243796756 465.77979859882106 665.2570541251141 470.22544032152445Q672.0871764081767 474.65087458185195 681.6857210367409 474.65087458185195L681.6857210367409 474.65087458185195Q692.5977507197401 474.65087458185195 699.5087028523064 467.82075229878944Q706.4196549848727 460.97042255335094 706.4196549848727 448.603455579285L706.4196549848727 448.603455579285L706.4196549848727 431.87167673201935Q702.4994072839434 438.86345871408935 694.7801566563401 443.51117506055203Q687.0811134911128 448.1790988693906 676.7551002170153 448.1790988693906L676.7551002170153 448.1790988693906Q666.1259750072788 448.1790988693906 657.4771811103831 442.9453661140261Q648.8081797511113 437.6914258962857 643.8573514690098 428.23433350435295Q638.9267306492842 418.7772411124202 638.9267306492842 406.71338607399315L638.9267306492842 406.71338607399315Q638.9267306492842 394.48787133655867 643.8573514690098 385.2530610307611Q648.8081797511113 376.0182507249635 657.4771811103831 370.9259702062305Q666.1259750072788 365.83368968749744 676.7551002170153 365.83368968749744L676.7551002170153 365.83368968749744ZM706.4196549848727 406.8548383106246Q706.4196549848727 397.8423100909622 702.7823117572062 391.1334325821552Q699.1449685295397 384.4447625357241 692.9614850425069 380.88824915756135Q686.7780015554738 377.3115283170227 679.3618628635095 377.3115283170227L679.3618628635095 377.3115283170227Q671.9457241715452 377.3115283170227 665.8430705340159 380.80741930805766Q659.7202094341108 384.30331029909263 656.0828662064442 390.9919803455237Q652.4455229787777 397.68065039195477 652.4455229787777 406.71338607399315L652.4455229787777 406.71338607399315Q652.4455229787777 415.86736653028703 656.0828662064442 422.6368664262218Q659.7202094341108 429.40636632215654 665.8430705340159 432.9628797003193Q671.9457241715452 436.539600540858 679.3618628635095 436.539600540858L679.3618628635095 436.539600540858Q686.7780015554738 436.539600540858 692.9614850425069 432.9628797003193Q699.1449685295397 429.40636632215654 702.7823117572062 422.6368664262218Q706.4196549848727 415.86736653028703 706.4196549848727 406.8548383106246L706.4196549848727 406.8548383106246ZM776.9841136016017 448.1790988693906Q765.7891794453395 448.1790988693906 756.6958213761734 443.0868183506576Q747.6024633070073 437.99453783192456 742.4293529387705 428.59806782711956Q737.2764500329097 419.2218052846905 737.2764500329097 406.8548383106246L737.2764500329097 406.8548383106246Q737.2764500329097 394.62932357319016 742.5910126377779 385.2530610307611Q747.8853677802701 375.8565910259561 757.05955569894 370.8451403567268Q766.2337436176098 365.83368968749744 777.5701300105036 365.83368968749744L777.5701300105036 365.83368968749744Q788.9267238657732 365.83368968749744 798.0807043220672 370.8451403567268Q807.2548922407369 375.8565910259561 812.5694548456052 385.1722311812574Q817.8840174504734 394.48787133655867 817.8840174504734 406.8548383106246L817.8840174504734 406.8548383106246Q817.8840174504734 419.2218052846905 812.4280026089737 428.59806782711956Q806.971987767474 437.99453783192456 797.6563476121727 443.0868183506576Q788.3407074568714 448.1790988693906 776.9841136016017 448.1790988693906L776.9841136016017 448.1790988693906ZM776.9841136016017 436.539600540858Q784.1173478203032 436.539600540858 790.3816611568399 433.1851617864545Q796.6257670310006 429.8509304944269 800.4853923448021 423.1420529856199Q804.3450176586038 416.4533829391888 804.3450176586038 406.8548383106246L804.3450176586038 406.8548383106246Q804.3450176586038 397.25629368206035 800.5662221943059 390.5676236356293Q796.787426730008 383.85874612682227 790.6645656301027 380.5851372219225Q784.5619119925735 377.3115283170227 777.4286777738721 377.3115283170227L777.4286777738721 377.3115283170227Q770.1539913185392 377.3115283170227 764.1119600681377 380.5851372219225Q758.0699288177362 383.85874612682227 754.4325855900697 390.5676236356293Q750.7952423624033 397.25629368206035 750.7952423624033 406.8548383106246L750.7952423624033 406.8548383106246Q750.7952423624033 416.59483517582026 754.371963202942 423.3037126846273Q757.9284765811047 429.9923827310584 763.8896779820026 433.2659916359582Q769.8710868452763 436.539600540858 776.9841136016017 436.539600540858L776.9841136016017 436.539600540858ZM870.1001002298627 448.1790988693906Q858.9051660736005 448.1790988693906 849.8118080044344 443.0868183506576Q840.7184499352683 437.99453783192456 835.5453395670315 428.59806782711956Q830.3924366611708 419.2218052846905 830.3924366611708 406.8548383106246L830.3924366611708 406.8548383106246Q830.3924366611708 394.62932357319016 835.7069992660389 385.2530610307611Q841.0013544085311 375.8565910259561 850.175542327201 370.8451403567268Q859.3497302458708 365.83368968749744 870.6861166387646 365.83368968749744L870.6861166387646 365.83368968749744Q882.0427104940343 365.83368968749744 891.1966909503282 370.8451403567268Q900.3708788689979 375.8565910259561 905.6854414738663 385.1722311812574Q911.0000040787344 394.48787133655867 911.0000040787344 406.8548383106246L911.0000040787344 406.8548383106246Q911.0000040787344 419.2218052846905 905.5439892372348 428.59806782711956Q900.087974395735 437.99453783192456 890.7723342404337 443.0868183506576Q881.4566940851324 448.1790988693906 870.1001002298627 448.1790988693906L870.1001002298627 448.1790988693906ZM870.1001002298627 436.539600540858Q877.2333344485643 436.539600540858 883.4976477851009 433.1851617864545Q889.7417536592616 429.8509304944269 893.6013789730632 423.1420529856199Q897.4610042868647 416.4533829391888 897.4610042868647 406.8548383106246L897.4610042868647 406.8548383106246Q897.4610042868647 397.25629368206035 893.6822088225668 390.5676236356293Q889.903413358269 383.85874612682227 883.7805522583639 380.5851372219225Q877.6778986208345 377.3115283170227 870.5446644021331 377.3115283170227L870.5446644021331 377.3115283170227Q863.2699779468002 377.3115283170227 857.2279466963987 380.5851372219225Q851.1859154459972 383.85874612682227 847.5485722183308 390.5676236356293Q843.9112289906644 397.25629368206035 843.9112289906644 406.8548383106246L843.9112289906644 406.8548383106246Q843.9112289906644 416.59483517582026 847.4879498312031 423.3037126846273Q851.0444632093657 429.9923827310584 857.0056646102636 433.2659916359582Q862.9870734735373 436.539600540858 870.1001002298627 436.539600540858L870.1001002298627 436.539600540858ZM923.5084232894318 406.71338607399315Q923.5084232894318 394.48787133655867 928.4592515715333 385.2530610307611Q933.3898723912589 376.0182507249635 942.0588737505307 370.9259702062305Q950.7076676474264 365.83368968749744 961.4782450937943 365.83368968749744L961.4782450937943 365.83368968749744Q970.7938852490955 365.83368968749744 978.7960403499618 370.1176717111935Q986.798195450828 374.4016537348895 991.0215550873962 381.39343571695946L991.0215550873962 381.39343571695946L991.0215550873962 339.2002542760287L1004.3988951802584 339.2002542760287L1004.3988951802584 446.8656138149555L991.0215550873962 446.8656138149555L991.0215550873962 431.87167673201935Q987.0810999240908 439.0049109507208 979.3820567588635 443.5920049100557Q971.6628061312604 448.1790988693906 961.3367928571628 448.1790988693906L961.3367928571628 448.1790988693906Q950.7076676474264 448.1790988693906 942.0588737505307 442.9453661140261Q933.3898723912589 437.6914258962857 928.4592515715333 428.23433350435295Q923.5084232894318 418.7772411124202 923.5084232894318 406.71338607399315L923.5084232894318 406.71338607399315ZM991.0215550873962 406.8548383106246Q991.0215550873962 397.8423100909622 987.3842118597297 391.1334325821552Q983.7468686320634 384.4447625357241 977.5633851450303 380.88824915756135Q971.3799016579974 377.3115283170227 963.9435555036571 377.3115283170227L963.9435555036571 377.3115283170227Q956.5274168116927 377.3115283170227 950.4247631741636 380.80741930805766Q944.3019020742582 384.30331029909263 940.6645588465918 390.9919803455237Q937.0272156189254 397.68065039195477 937.0272156189254 406.71338607399315L937.0272156189254 406.71338607399315Q937.0272156189254 415.86736653028703 940.6645588465918 422.6368664262218Q944.3019020742582 429.40636632215654 950.4247631741636 432.9628797003193Q956.5274168116927 436.539600540858 963.9435555036571 436.539600540858L963.9435555036571 436.539600540858Q971.3799016579974 436.539600540858 977.5633851450303 432.9628797003193Q983.7468686320634 429.40636632215654 987.3842118597297 422.6368664262218Q991.0215550873962 415.86736653028703 991.0215550873962 406.8548383106246L991.0215550873962 406.8548383106246ZM1098.5252549273155 365.83368968749744Q1108.8714756637892 365.83368968749744 1116.6513486785202 370.3399537973287Q1124.4312216932512 374.8462179071599 1128.210017157549 381.67634019022245L1128.210017157549 381.67634019022245L1128.210017157549 367.1269672795566L1141.6075647127873 367.1269672795566L1141.6075647127873 448.603455579285Q1141.6075647127873 459.51548526228436 1136.9396409039487 468.0430343849246Q1132.2919245574858 476.5503760451889 1123.6229231982143 481.339544628283Q1114.9741293013185 486.14892067375314 1103.476083209417 486.14892067375314L1103.476083209417 486.14892067375314Q1087.7748849433237 486.14892067375314 1077.2872119702188 478.7327819817888Q1066.8197464594896 471.3166432898244 1064.9202449961529 458.50511214348813L1064.9202449961529 458.50511214348813L1078.014680615752 458.50511214348813Q1080.1970865523517 465.77979859882106 1087.0474162977903 470.22544032152445Q1093.877538580853 474.65087458185195 1103.476083209417 474.65087458185195L1103.476083209417 474.65087458185195Q1114.3881128924163 474.65087458185195 1121.2990650249826 467.82075229878944Q1128.210017157549 460.97042255335094 1128.210017157549 448.603455579285L1128.210017157549 448.603455579285L1128.210017157549 431.87167673201935Q1124.2897694566195 438.86345871408935 1116.5705188290162 443.51117506055203Q1108.8714756637892 448.1790988693906 1098.5252549273155 448.1790988693906L1098.5252549273155 448.1790988693906Q1087.916337179955 448.1790988693906 1079.2473358206835 442.9453661140261Q1070.5985419237877 437.6914258962857 1065.647713641686 428.23433350435295Q1060.6968853595845 418.7772411124202 1060.6968853595845 406.71338607399315L1060.6968853595845 406.71338607399315Q1060.6968853595845 394.48787133655867 1065.647713641686 385.2530610307611Q1070.5985419237877 376.0182507249635 1079.2473358206835 370.9259702062305Q1087.916337179955 365.83368968749744 1098.5252549273155 365.83368968749744L1098.5252549273155 365.83368968749744ZM1128.210017157549 406.8548383106246Q1128.210017157549 397.8423100909622 1124.5726739298825 391.1334325821552Q1120.935330702216 384.4447625357241 1114.7518472151833 380.88824915756135Q1108.5683637281502 377.3115283170227 1101.1522250361859 377.3115283170227L1101.1522250361859 377.3115283170227Q1093.7360863442213 377.3115283170227 1087.6132252443163 380.80741930805766Q1081.510571606787 384.30331029909263 1077.8732283791205 390.9919803455237Q1074.235885151454 397.68065039195477 1074.235885151454 406.71338607399315L1074.235885151454 406.71338607399315Q1074.235885151454 415.86736653028703 1077.8732283791205 422.6368664262218Q1081.510571606787 429.40636632215654 1087.6132252443163 432.9628797003193Q1093.7360863442213 436.539600540858 1101.1522250361859 436.539600540858L1101.1522250361859 436.539600540858Q1108.5683637281502 436.539600540858 1114.7518472151833 432.9628797003193Q1120.935330702216 429.40636632215654 1124.5726739298825 422.6368664262218Q1128.210017157549 415.86736653028703 1128.210017157549 406.8548383106246L1128.210017157549 406.8548383106246ZM1221.4674560224416 367.1269672795566L1234.7235513410483 367.1269672795566L1234.7235513410483 446.8656138149555L1221.4674560224416 446.8656138149555L1221.4674560224416 435.0846632497914Q1217.6886605581435 441.18731688732066 1210.919160662209 444.60237802885194Q1204.1698682286499 448.03764663275916 1196.0060534287763 448.03764663275916L1196.0060534287763 448.03764663275916Q1186.710620735851 448.03764663275916 1179.2742745815108 444.1780213189575Q1171.8581358895462 440.3183960051559 1167.5741538658503 432.5991453775527Q1163.2699643797782 424.90010221232535 1163.2699643797782 413.8466202926945L1163.2699643797782 413.8466202926945L1163.2699643797782 367.1269672795566L1176.3643999993774 367.1269672795566L1176.3643999993774 412.08857106598913Q1176.3643999993774 423.8695216311532 1182.3458088626512 430.2146648171936Q1188.3070102635493 436.539600540858 1198.6330235376465 436.539600540858L1198.6330235376465 436.539600540858Q1209.262148747383 436.539600540858 1215.3648023849123 429.9923827310584Q1221.4674560224416 423.44516492125877 1221.4674560224416 410.9367457105614L1221.4674560224416 410.9367457105614L1221.4674560224416 367.1269672795566ZM1263.9637493990112 354.1941913589648Q1260.1849539347131 354.1941913589648 1257.5579838258432 351.56722125009463Q1254.9310137169728 348.9402511412244 1254.9310137169728 345.1614556769265L1254.9310137169728 345.1614556769265Q1254.9310137169728 341.38266021262854 1257.5579838258432 338.75569010375835Q1260.1849539347131 336.14892745726405 1263.9637493990112 336.14892745726405L1263.9637493990112 336.14892745726405Q1267.6010926266777 336.14892745726405 1270.147232886044 338.75569010375835Q1272.6933731454105 341.38266021262854 1272.6933731454105 345.1614556769265L1272.6933731454105 345.1614556769265Q1272.6933731454105 348.9402511412244 1270.147232886044 351.56722125009463Q1267.6010926266777 354.1941913589648 1263.9637493990112 354.1941913589648L1263.9637493990112 354.1941913589648ZM1257.1134196535727 367.1269672795566L1270.3695149721793 367.1269672795566L1270.3695149721793 446.8656138149555L1257.1134196535727 446.8656138149555L1257.1134196535727 367.1269672795566ZM1329.8602842069013 378.038996962556L1309.066805422075 378.038996962556L1309.066805422075 425.04155444895684Q1309.066805422075 430.86130361322313 1311.532115831938 433.2659916359582Q1314.0176337041767 435.67067965869325 1320.120287341706 435.67067965869325L1320.120287341706 435.67067965869325L1329.8602842069013 435.67067965869325L1329.8602842069013 446.8656138149555L1317.937881405106 446.8656138149555Q1306.8843994854751 446.8656138149555 1301.3475547944718 441.77333329622246Q1295.8309175658442 436.68105277748947 1295.8309175658442 425.04155444895684L1295.8309175658442 425.04155444895684L1295.8309175658442 378.038996962556L1285.484696829371 378.038996962556L1285.484696829371 367.1269672795566L1295.8309175658442 367.1269672795566L1295.8309175658442 347.0609571402634L1309.066805422075 347.0609571402634L1309.066805422075 367.1269672795566L1329.8602842069013 367.1269672795566L1329.8602842069013 378.038996962556ZM1340.9339735889084 406.71338607399315Q1340.9339735889084 394.48787133655867 1345.8645944086338 385.2530610307611Q1350.8154226907354 376.0182507249635 1359.4844240500074 370.9259702062305Q1368.1332179469027 365.83368968749744 1378.7623431566394 365.83368968749744L1378.7623431566394 365.83368968749744Q1389.2298086673682 365.83368968749744 1396.9490592949714 370.3399537973287Q1404.648102460199 374.8462179071599 1408.4268979244966 381.67634019022245L1408.4268979244966 381.67634019022245L1408.4268979244966 367.1269672795566L1421.824445479735 367.1269672795566L1421.824445479735 446.8656138149555L1408.4268979244966 446.8656138149555L1408.4268979244966 432.0333364310268Q1404.5066502235672 439.0049109507208 1396.7267772088367 443.5920049100557Q1388.9469041941056 448.1790988693906 1378.600683457632 448.1790988693906L1378.600683457632 448.1790988693906Q1367.9917657102715 448.1790988693906 1359.4035942005034 442.9453661140261Q1350.8154226907354 437.6914258962857 1345.8645944086338 428.23433350435295Q1340.9339735889084 418.7772411124202 1340.9339735889084 406.71338607399315L1340.9339735889084 406.71338607399315ZM1408.4268979244966 406.8548383106246Q1408.4268979244966 397.8423100909622 1404.7895546968302 391.1334325821552Q1401.1522114691638 384.4447625357241 1394.968727982131 380.88824915756135Q1388.7852444950981 377.3115283170227 1381.3691058031336 377.3115283170227L1381.3691058031336 377.3115283170227Q1373.952967111169 377.3115283170227 1367.8503134736397 380.80741930805766Q1361.7274523737346 384.30331029909263 1358.0901091460682 390.9919803455237Q1354.4527659184018 397.68065039195477 1354.4527659184018 406.71338607399315L1354.4527659184018 406.71338607399315Q1354.4527659184018 415.86736653028703 1358.0901091460682 422.6368664262218Q1361.7274523737346 429.40636632215654 1367.8503134736397 432.9628797003193Q1373.952967111169 436.539600540858 1381.3691058031336 436.539600540858L1381.3691058031336 436.539600540858Q1388.7852444950981 436.539600540858 1394.968727982131 432.9628797003193Q1401.1522114691638 429.40636632215654 1404.7895546968302 422.6368664262218Q1408.4268979244966 415.86736653028703 1408.4268979244966 406.8548383106246L1408.4268979244966 406.8548383106246ZM1457.470409110866 380.07995066252437Q1460.9663001019012 373.2498283794618 1467.432688062197 369.4710329151639Q1473.8990760224929 365.67202998849007 1483.2147161777943 365.67202998849007L1483.2147161777943 365.67202998849007L1483.2147161777943 379.3524820169911L1479.7188251867592 379.3524820169911Q1457.470409110866 379.3524820169911 1457.470409110866 403.5003995562211L1457.470409110866 403.5003995562211L1457.470409110866 446.8656138149555L1444.2345212546356 446.8656138149555L1444.2345212546356 367.1269672795566L1457.470409110866 367.1269672795566L1457.470409110866 380.07995066252437ZM1526.72138267316 448.1790988693906Q1517.5471947544902 448.1790988693906 1510.2725082991574 445.0469422011223Q1502.9978218438246 441.91478553285395 1498.7946696696322 436.31731845472285Q1494.5713100330636 430.7198513765917 1494.1267458607936 423.44516492125877L1494.1267458607936 423.44516492125877L1507.8071978892945 423.44516492125877Q1508.3932142981962 429.40636632215654 1513.4046649674256 433.1851617864545Q1518.4363230990307 436.9639572507524 1526.5799304365287 436.9639572507524L1526.5799304365287 436.9639572507524Q1534.1375213651245 436.9639572507524 1538.502333238324 433.6297259587248Q1542.8671451115238 430.27528720432133 1542.8671451115238 425.1830066855883L1542.8671451115238 425.1830066855883Q1542.8671451115238 419.9492739302238 1538.2194287650614 417.4031336708573Q1533.5515049562227 414.8569934114908 1523.811508091027 412.391683001628L1523.811508091027 412.391683001628Q1514.940432107996 410.0476173660207 1509.342965029865 407.6631368056616Q1503.7252904893576 405.25844878292656 1499.7242129389247 400.5299025869602Q1495.7231353884918 395.8013563909938 1495.7231353884918 388.08210576339053L1495.7231353884918 388.08210576339053Q1495.7231353884918 381.9794521258613 1499.3604786161577 376.88717160712827Q1502.9978218438246 371.7948910883952 1509.7066993526314 368.80418665675836Q1516.3953693990625 365.83368968749744 1524.9835409088305 365.83368968749744L1524.9835409088305 365.83368968749744Q1538.2194287650614 365.83368968749744 1546.363036102559 372.5223597339285Q1554.5066434400565 379.21102978035964 1555.0926598489582 390.8505281088922L1555.0926598489582 390.8505281088922L1541.8567719927278 390.8505281088922Q1541.4122078204573 384.58621477235556 1536.8251138611222 380.80741930805766Q1532.2582273641633 377.0286238437597 1524.53897673656 377.0286238437597L1524.53897673656 377.0286238437597Q1517.4057425178585 377.0286238437597 1513.1823828812903 380.07995066252437Q1508.979230707098 383.13127748128903 1508.979230707098 388.08210576339053L1508.979230707098 388.08210576339053Q1508.979230707098 392.02256092669586 1511.5253709664644 394.56870118606236Q1514.0715112258313 397.1148414454289 1517.9109290772567 398.63040112362324Q1521.7705543910583 400.1661682641935 1528.620884136497 402.0454622651545L1528.620884136497 402.0454622651545Q1537.1888481838891 404.38952790076183 1542.5842406382608 406.63255622448946Q1547.9594256302566 408.89579201059297 1551.8190509440583 413.4020561204242Q1555.67867625786 417.9083202302554 1555.8201284944917 425.1830066855883L1555.8201284944917 425.1830066855883Q1555.8201284944917 431.7302244953879 1552.1827852668252 436.9639572507524Q1548.5454420391588 442.2178974684928 1541.9173943798555 445.18839443775374Q1535.309554182928 448.1790988693906 1526.72138267316 448.1790988693906L1526.72138267316 448.1790988693906Z " fill="#3d3c42" transform="matrix(0.5624043665426521,0,0,0.562404366542652,0,68.7680602320794)"/></g></svg>